<svg height="512" viewBox="0 0 58 58" width="512" xmlns="http://www.w3.org/2000/svg"><g id="Page-1" fill="none" fill-rule="evenodd"><g id="067---Contact-Us" transform="translate(-1)"><path id="Path" d="m58.14.9c-.5608839-.57908684-1.3338269-.90415634-2.14-.9h-28c-.8061731-.00415634-1.5791161.32091316-2.14.9-.551667.55967218-.8606413 1.31414441-.86 2.1v20c-.0006413.7858556.308333 1.5403278.86 2.1.5608839.5790868 1.3338269.9041563 2.14.9h28c.8061731.0041563 1.5791161-.3209132 2.14-.9.551667-.5596722.8606413-1.3141444.86-2.1v-20c.0006413-.78585559-.308333-1.54032782-.86-2.1z" fill="#f2d45b"/><path id="Path" d="m20.01 23.52-2.1 2.11-7.751-5-4.899-7.65 2.1-2.11c1.17145888-1.15990169 3.0585411-1.15990169 4.23 0l8.42 8.44c.5614678.5565837.877311 1.3144106.877311 2.105s-.3158432 1.5484163-.877311 2.105z" fill="#9ec8d2"/><path id="Path" d="m48.13 51.64-2.11 2.1-7.889-4.64-4.761-8.01 2.11-2.1c.5565837-.5614678 1.3144106-.877311 2.105-.877311s1.5484163.3158432 2.105.877311l8.44 8.42c1.1599017 1.1714589 1.1599017 3.0585411 0 4.23z" fill="#9ec8d2"/><path id="Path" d="m46.02 53.74-3.68 3.67c-.3647522.3701408-.8603991.5820478-1.38.59-3.23.04-15.24-.67-27.27-12.69s-12.73-24.04-12.69-27.27c.00795225-.5196009.21985925-1.0152478.59-1.38l3.67-3.68 12.65 12.65-2.39 2.39c-.684307.683112-.7771958 1.759778-.22 2.55 1.8380118 2.5055952 3.8853589 4.8506775 6.12 7.01 2.1593225 2.2346411 4.5044048 4.2819882 7.01 6.12.790222.5571958 1.866888.464307 2.55-.22l2.39-2.39z" fill="#4481c2"/><path id="Path" d="m58.14 25.1c-.5608839.5790868-1.3338269.9041563-2.14.9h-28c-.8061731.0041563-1.5791161-.3209132-2.14-.9l11.55-12.1 1.68 1.76c.7615505.790788 1.8121363 1.2375903 2.91 1.2375903s2.1484495-.4468023 2.91-1.2375903l1.68-1.76z" fill="#efc319"/><path id="Path" d="m58.14.9-11.55 12.1-1.68 1.76c-.7615505.790788-1.8121363 1.2375903-2.91 1.2375903s-2.1484495-.4468023-2.91-1.2375903l-1.68-1.76-11.55-12.1c.5608839-.57908684 1.3338269-.90415634 2.14-.9h28c.8061731-.00415634 1.5791161.32091316 2.14.9z" fill="#f8e9af"/></g></g></svg>