<svg width="17" height="21" viewBox="0 0 17 21" fill="none" xmlns="http://www.w3.org/2000/svg">
<path d="M6.375 0.75H1.875C1.254 0.75 0.75 1.254 0.75 1.875V19.125C0.75 19.746 1.254 20.25 1.875 20.25H14.625C15.246 20.25 15.75 19.746 15.75 19.125V10.125M6.375 0.75H6.75C9.13695 0.75 11.4261 1.69821 13.114 3.38604C14.8018 5.07387 15.75 7.36305 15.75 9.75V10.125M6.375 0.75C7.27011 0.75 8.12855 1.10558 8.76149 1.73851C9.39442 2.37145 9.75 3.22989 9.75 4.125V5.625C9.75 6.246 10.254 6.75 10.875 6.75H12.375C13.2701 6.75 14.1286 7.10558 14.7615 7.73851C15.3944 8.37145 15.75 9.22989 15.75 10.125M5.25 13.5L7.5 15.75L11.25 10.5" stroke="black" stroke-width="1.5" stroke-linecap="round" stroke-linejoin="round"/>
</svg>
