<svg width="16" height="16" viewBox="0 0 16 16" fill="none" xmlns="http://www.w3.org/2000/svg">
<path fill-rule="evenodd" clip-rule="evenodd" d="M13.1125 7.21486C13.3369 6.73867 13.4491 6.12972 13.4491 5.388H13.4485C13.4485 3.94572 12.9384 2.71448 11.9182 1.69429C10.898 0.674097 9.66677 0.164001 8.22449 0.164001C6.7822 0.164001 5.55096 0.674097 4.53077 1.69429C3.51058 2.71448 3.00049 3.94572 3.00049 5.388C3.00049 6.12972 3.11268 6.73867 3.33706 7.21486L7.06163 15.1126C7.16373 15.337 7.32182 15.5137 7.53592 15.6429C7.75001 15.772 7.97954 15.8366 8.22449 15.8366C8.46944 15.8366 8.69896 15.772 8.91306 15.6429C9.12715 15.5137 9.28868 15.337 9.39763 15.1126L13.1125 7.21486ZM10.0713 3.54114C10.5814 4.05124 10.8365 4.66686 10.8365 5.388C10.8365 6.10914 10.5814 6.72476 10.0713 7.23486C9.56125 7.74495 8.94563 8 8.22449 8C7.50335 8 6.88773 7.74495 6.37763 7.23486C5.86754 6.72476 5.61249 6.10914 5.61249 5.388C5.61249 4.66686 5.86754 4.05124 6.37763 3.54114C6.88773 3.03105 7.50335 2.776 8.22449 2.776C8.94563 2.776 9.56125 3.03105 10.0713 3.54114Z" fill="black"/>
<mask id="mask0_0_438" style="mask-type:alpha" maskUnits="userSpaceOnUse" x="3" y="0" width="11" height="16">
<path fill-rule="evenodd" clip-rule="evenodd" d="M13.1125 7.21486C13.3369 6.73867 13.4491 6.12972 13.4491 5.388H13.4485C13.4485 3.94572 12.9384 2.71448 11.9182 1.69429C10.898 0.674097 9.66677 0.164001 8.22449 0.164001C6.7822 0.164001 5.55096 0.674097 4.53077 1.69429C3.51058 2.71448 3.00049 3.94572 3.00049 5.388C3.00049 6.12972 3.11268 6.73867 3.33706 7.21486L7.06163 15.1126C7.16373 15.337 7.32182 15.5137 7.53592 15.6429C7.75001 15.772 7.97954 15.8366 8.22449 15.8366C8.46944 15.8366 8.69896 15.772 8.91306 15.6429C9.12715 15.5137 9.28868 15.337 9.39763 15.1126L13.1125 7.21486ZM10.0713 3.54114C10.5814 4.05124 10.8365 4.66686 10.8365 5.388C10.8365 6.10914 10.5814 6.72476 10.0713 7.23486C9.56125 7.74495 8.94563 8 8.22449 8C7.50335 8 6.88773 7.74495 6.37763 7.23486C5.86754 6.72476 5.61249 6.10914 5.61249 5.388C5.61249 4.66686 5.86754 4.05124 6.37763 3.54114C6.88773 3.03105 7.50335 2.776 8.22449 2.776C8.94563 2.776 9.56125 3.03105 10.0713 3.54114Z" fill="white"/>
</mask>
<g mask="url(#mask0_0_438)">
<rect x="-3" width="21" height="16" fill="#0067be"/>
</g>
</svg>
