<svg width="48" height="48" viewBox="0 0 48 48" fill="none" xmlns="http://www.w3.org/2000/svg">
<path d="M47 24C47 36.7025 36.7025 47 24 47C11.2975 47 1 36.7025 1 24C1 11.2975 11.2975 1 24 1C36.7025 1 47 11.2975 47 24Z" stroke="#0077DA" stroke-width="2"/>
<path fill-rule="evenodd" clip-rule="evenodd" d="M31.2181 25.8068C29.4894 25.8068 28.0665 26.8233 27.3542 28.247L21.0501 25.4004C21.1515 24.994 21.2537 24.5867 21.1515 24.0789C21.1515 23.8753 21.0501 23.6724 21.0501 23.4688L27.3542 20.52C28.1679 21.8415 29.693 22.7566 31.421 22.7566C33.9626 22.6552 35.9964 20.52 35.8949 17.9776C35.7935 15.4352 33.6583 13.4022 31.116 13.5036C28.5743 13.5036 26.642 15.6388 26.642 18.079C26.642 18.1804 26.642 18.1804 26.642 18.2826C26.642 18.5877 26.7434 18.7913 26.7434 19.0963L20.6429 22.0451C19.7278 20.52 18.2027 19.6049 16.474 19.7063C13.9323 19.7063 12 21.8415 12 24.2817C12 24.3831 12 24.3831 12 24.4853C12.1014 27.0269 14.2366 29.0607 16.779 28.9593C18.3041 28.8579 19.6256 28.0442 20.4393 26.9255L26.8448 29.8744C26.8448 30.078 26.7434 30.2808 26.7434 30.4844C26.7434 30.5858 26.7434 30.5858 26.7434 30.688C26.8448 33.2296 28.98 35.2634 31.5224 35.162C34.0648 35.0606 36.0978 32.9254 35.9964 30.383C35.8949 27.8406 33.7598 25.7062 31.2174 25.8076L31.2181 25.8068ZM31.2181 15.0288C32.9469 14.9273 34.3698 16.2489 34.3698 17.9776C34.4712 19.7063 33.1497 21.1293 31.421 21.1293C29.6922 21.2307 28.2693 19.9092 28.2693 18.1804V18.079C28.1679 16.4525 29.4894 15.1302 31.2181 15.0288ZM16.6783 27.332C14.9496 27.4334 13.5267 26.1119 13.5267 24.3831V24.2817C13.5267 22.6552 14.8482 21.2315 16.4755 21.2315C18.2042 21.13 19.6272 22.4516 19.6272 24.1803C19.7286 25.8068 18.4071 27.2306 16.6783 27.332ZM31.421 33.4325C29.6922 33.5339 28.2693 32.2124 28.2693 30.4836V30.3822C28.2693 28.7557 29.5908 27.332 31.2181 27.332C32.9469 27.2306 34.3698 28.5521 34.3698 30.2808C34.4712 32.0095 33.1497 33.4325 31.421 33.4325Z" fill="#0077DA"/>
<mask id="mask0_0_33" style="mask-type:alpha" maskUnits="userSpaceOnUse" x="12" y="13" width="24" height="23">
<path fill-rule="evenodd" clip-rule="evenodd" d="M31.2181 25.8068C29.4894 25.8068 28.0665 26.8233 27.3542 28.247L21.0501 25.4004C21.1515 24.994 21.2537 24.5867 21.1515 24.0789C21.1515 23.8753 21.0501 23.6724 21.0501 23.4688L27.3542 20.52C28.1679 21.8415 29.693 22.7566 31.421 22.7566C33.9626 22.6552 35.9964 20.52 35.8949 17.9776C35.7935 15.4352 33.6583 13.4022 31.116 13.5036C28.5743 13.5036 26.642 15.6388 26.642 18.079C26.642 18.1804 26.642 18.1804 26.642 18.2826C26.642 18.5877 26.7434 18.7913 26.7434 19.0963L20.6429 22.0451C19.7278 20.52 18.2027 19.6049 16.474 19.7063C13.9323 19.7063 12 21.8415 12 24.2817C12 24.3831 12 24.3831 12 24.4853C12.1014 27.0269 14.2366 29.0607 16.779 28.9593C18.3041 28.8579 19.6256 28.0442 20.4393 26.9255L26.8448 29.8744C26.8448 30.078 26.7434 30.2808 26.7434 30.4844C26.7434 30.5858 26.7434 30.5858 26.7434 30.688C26.8448 33.2296 28.98 35.2634 31.5224 35.162C34.0648 35.0606 36.0978 32.9254 35.9964 30.383C35.8949 27.8406 33.7598 25.7062 31.2174 25.8076L31.2181 25.8068ZM31.2181 15.0288C32.9469 14.9273 34.3698 16.2489 34.3698 17.9776C34.4712 19.7063 33.1497 21.1293 31.421 21.1293C29.6922 21.2307 28.2693 19.9092 28.2693 18.1804V18.079C28.1679 16.4525 29.4894 15.1302 31.2181 15.0288ZM16.6783 27.332C14.9496 27.4334 13.5267 26.1119 13.5267 24.3831V24.2817C13.5267 22.6552 14.8482 21.2315 16.4755 21.2315C18.2042 21.13 19.6272 22.4516 19.6272 24.1803C19.7286 25.8068 18.4071 27.2306 16.6783 27.332ZM31.421 33.4325C29.6922 33.5339 28.2693 32.2124 28.2693 30.4836V30.3822C28.2693 28.7557 29.5908 27.332 31.2181 27.332C32.9469 27.2306 34.3698 28.5521 34.3698 30.2808C34.4712 32.0095 33.1497 33.4325 31.421 33.4325Z" fill="white"/>
</mask>
<g mask="url(#mask0_0_33)">
<rect width="31.5" height="24" transform="translate(7.5 12)" fill="#0077DA"/>
<rect x="7.5" y="12" width="31.5" height="24" fill="#0077DA"/>
</g>
</svg>
